<svg width="22" height="24" viewBox="0 0 22 24" fill="none" xmlns="http://www.w3.org/2000/svg">
<path fill-rule="evenodd" clip-rule="evenodd" d="M18 11V8C18 4.13401 14.866 1 11 1C7.13401 1 4 4.13401 4 8V11C4 14.3 1 15.1 1 17C1 18.7 4.9 20 11 20C17.1 20 21 18.7 21 17C21 15.1 18 14.3 18 11Z" stroke="#11142D" stroke-width="2" stroke-linecap="round" stroke-linejoin="round"/>
<path d="M11 22C9.989 22 9.039 21.966 8.145 21.9C8.53617 23.1478 9.69234 23.997 11 23.997C12.3077 23.997 13.4638 23.1478 13.855 21.9C12.961 21.966 12.011 22 11 22Z" fill="#1B1D21"/>
</svg>
